<svg width="321" height="92" viewBox="0 0 321 92" fill="none" xmlns="http://www.w3.org/2000/svg">
<path d="M23.52 91.68C19.76 91.68 16.8 90.24 14.64 87.36C12.72 84.72 11.76 81.2 11.76 76.8C11.76 71.36 13.6 64.84 17.28 57.24C5.75998 56.52 -1.70246e-05 50.8 -1.70246e-05 40.08C-1.70246e-05 34 1.91998 27.44 5.75998 20.4C7.11998 17.84 8.63998 15.44 10.32 13.2C12 10.88 13.84 8.84001 15.84 7.08001C20.88 2.36001 26.04 1.04904e-05 31.32 1.04904e-05C41.16 1.04904e-05 46.08 5.24001 46.08 15.72C46.08 18.52 45.6 21.48 44.64 24.6C43.76 27.72 42.28 31 40.2 34.44C38.2 37.88 36.08 41.28 33.84 44.64C31.6 47.92 29.44 51.24 27.36 54.6C31.12 53.96 35.28 52.84 39.84 51.24C40.08 51.16 40.36 51.12 40.68 51.12C41.32 51.12 41.64 51.4 41.64 51.96C41.64 52.44 41.2 52.88 40.32 53.28C37.68 54.16 35.16 54.92 32.76 55.56C30.36 56.2 28.08 56.68 25.92 57C21.36 64.92 19.08 71.92 19.08 78C19.08 80.96 19.56 83.4 20.52 85.32C21.88 87.64 23.76 88.8 26.16 88.8C30.56 88.8 35.68 85.52 41.52 78.96C44 76.24 47.96 70.16 53.4 60.72C54.52 54.24 56 48.84 57.84 44.52C59.76 40.04 62.28 37.8 65.4 37.8C67.48 37.8 68.52 39.04 68.52 41.52C68.52 42.8 68.08 44.52 67.2 46.68C66.56 48.2 65.8 49.68 64.92 51.12C64.12 52.56 63.28 53.96 62.4 55.32L58.08 61.32C56.16 66.44 55.2 71.6 55.2 76.8C55.2 78.48 55.32 80 55.56 81.36C56.52 86.48 58.92 89.04 62.76 89.04C72.6 89.04 83.28 78 94.8 55.92C98.8 48.4 100.8 40.32 100.8 31.68C100.8 23.68 98.52 18 93.96 14.64C91.96 13.12 89.12 12.36 85.44 12.36C81.52 12.36 78.64 13.44 76.8 15.6C76.16 16.24 75.6 16.56 75.12 16.56C74.64 16.56 74.4 16.36 74.4 15.96C74.4 15.56 74.56 15.2 74.88 14.88C77.52 11.68 81.92 10.08 88.08 10.08C91.68 10.08 94.72 10.68 97.2 11.88C104.72 15.56 108.48 22.48 108.48 32.64C108.48 40.16 106.44 47.84 102.36 55.68C100.04 60.16 97.56 64.32 94.92 68.16C92.28 72 89.48 75.44 86.52 78.48C78.44 87.04 70.52 91.32 62.76 91.32C56.6 91.32 52.72 88.68 51.12 83.4C50.56 81.64 50.28 79.6 50.28 77.28C50.28 75.2 50.52 73.04 51 70.8C49.48 73.04 47.96 75.12 46.44 77.04C45 78.88 43.52 80.56 42 82.08C35.6 88.48 29.44 91.68 23.52 91.68ZM18.36 55.08C20.2 51.8 22.04 48.52 23.88 45.24C25.8 41.96 27.68 38.64 29.52 35.28C33.92 27.36 36.76 20.88 38.04 15.84C38.52 13.76 38.76 11.88 38.76 10.2C38.76 5.00001 36.48 2.40001 31.92 2.40001C28.64 2.40001 25 4.16001 21 7.68001C16.68 11.52 13.04 16.52 10.08 22.68C6.95998 29.16 5.39998 35.08 5.39998 40.44C5.39998 49.32 9.71998 54.2 18.36 55.08ZM115.287 88.68C112.167 88.68 109.487 87.68 107.247 85.68C106.047 84.56 105.167 83.28 104.607 81.84C104.127 80.32 103.887 78.6 103.887 76.68C103.887 69.32 106.927 62 113.007 54.72C118.127 48.56 123.447 45.48 128.967 45.48C130.807 45.48 132.367 45.96 133.647 46.92C135.007 48.04 135.687 49.48 135.687 51.24C135.687 55.64 132.767 60.04 126.927 64.44C125.087 65.8 122.647 67 119.607 68.04C116.247 69.16 113.807 69.72 112.287 69.72C111.167 72.44 110.607 75.32 110.607 78.36C110.607 83.56 112.527 86.16 116.367 86.16C121.407 86.16 126.127 82.88 130.527 76.32L131.007 75.6L133.047 76.44L132.687 77.16C130.687 81.16 128.167 84.08 125.127 85.92C122.087 87.76 118.807 88.68 115.287 88.68ZM113.007 67.68C114.367 67.68 116.247 67.24 118.647 66.36C120.007 65.8 121.287 65.2 122.487 64.56C123.767 63.92 124.887 63.2 125.847 62.4C130.247 58.72 132.447 54.84 132.447 50.76C132.447 49 131.807 48.12 130.527 48.12C128.287 48.12 124.887 50.88 120.327 56.4C118.007 59.2 115.567 62.96 113.007 67.68ZM139.365 88.2C137.045 88.2 135.885 87.04 135.885 84.72C135.885 83.28 136.365 81.32 137.325 78.84L160.605 19.32C160.765 19.08 160.845 18.84 160.845 18.6C160.845 18.36 160.845 18.16 160.845 18C160.845 16.8 160.365 15.56 159.405 14.28H165.885C168.125 14.28 169.245 14.8 169.245 15.84C169.245 16.32 169.005 17.16 168.525 18.36L145.245 77.64C144.205 80.2 143.685 82.48 143.685 84.48C143.685 86.32 144.245 87.56 145.365 88.2H139.365ZM169.462 88.68C161.462 88.68 157.462 84.68 157.462 76.68C157.462 69.96 159.782 63.32 164.422 56.76C169.462 49.56 175.262 45.96 181.822 45.96C187.902 45.96 190.622 48.72 189.982 54.24C189.902 55.68 189.142 57.24 187.702 58.92C186.342 60.52 185.022 61.32 183.742 61.32C183.022 61.32 182.422 61.08 181.942 60.6C183.942 58.6 185.182 56.56 185.662 54.48C185.822 53.92 185.942 53.44 186.022 53.04C186.102 52.56 186.142 52.12 186.142 51.72C186.142 49.64 185.182 48.6 183.262 48.6C180.462 48.6 176.542 52 171.502 58.8C166.702 65.28 164.302 71.6 164.302 77.76C164.302 83.6 166.542 86.52 171.022 86.52C175.342 86.52 179.542 83.8 183.622 78.36L184.342 77.4L186.022 78.36L185.182 79.56C180.942 85.64 175.702 88.68 169.462 88.68ZM198.565 88.2C192.725 88.2 189.805 84.64 189.805 77.52C189.805 74 190.645 70.28 192.325 66.36C194.725 60.68 198.125 55.88 202.525 51.96C206.845 48.12 210.925 46.2 214.765 46.2C220.685 46.2 223.645 49.68 223.645 56.64C223.645 60.24 222.765 64.04 221.005 68.04C218.925 72.84 215.925 77.2 212.005 81.12C207.125 85.84 202.645 88.2 198.565 88.2ZM200.485 85.56C202.325 85.56 204.285 84.8 206.365 83.28C209.005 81.36 212.005 77.36 215.365 71.28C219.045 64.72 220.885 59.44 220.885 55.44C220.885 51.84 219.365 50.04 216.325 50.04C213.925 50.04 211.205 51.56 208.165 54.6C205.205 57.56 202.685 61.32 200.605 65.88C197.805 71.88 196.405 76.68 196.405 80.28C196.405 83.8 197.765 85.56 200.485 85.56ZM221.253 89.04C222.853 85.12 224.853 80.28 227.253 74.52C229.653 68.76 232.573 62.12 236.013 54.6C236.733 53 237.413 51.68 238.053 50.64C238.693 49.6 239.293 48.8 239.853 48.24C240.973 47.12 242.413 46.56 244.173 46.56C244.333 46.56 244.613 46.56 245.013 46.56C245.413 46.56 245.973 46.64 246.693 46.8C247.813 46.88 248.653 46.88 249.213 46.8C246.253 48.56 241.813 56.32 235.893 70.08C236.773 68.96 237.893 67.56 239.253 65.88C240.613 64.12 242.373 62.2 244.533 60.12C246.773 57.96 248.613 56.28 250.053 55.08C251.493 53.88 252.493 53.08 253.053 52.68C256.573 50.04 259.173 48.72 260.853 48.72C263.173 48.72 264.333 49.84 264.333 52.08C264.333 52.8 264.173 53.48 263.853 54.12C262.893 55.96 261.653 58.28 260.133 61.08C258.693 63.88 257.013 67.16 255.093 70.92C258.933 66.12 262.253 62.48 265.053 60C266.493 58.72 268.093 57.48 269.853 56.28C271.693 55.08 273.653 53.88 275.733 52.68C280.293 50.04 283.733 48.72 286.053 48.72C286.613 48.72 287.013 48.76 287.253 48.84C285.973 51.08 284.773 53.24 283.653 55.32C282.613 57.4 281.613 59.36 280.653 61.2C278.413 65.6 276.653 69.36 275.373 72.48C274.093 75.6 273.253 78.04 272.853 79.8C272.773 80.36 272.693 80.88 272.613 81.36C272.613 81.84 272.613 82.28 272.613 82.68C272.613 84.76 273.373 85.8 274.893 85.8C277.373 85.8 280.333 83.28 283.773 78.24L285.453 79.44C281.373 85.6 277.293 88.68 273.213 88.68C268.173 88.68 265.653 86.08 265.653 80.88C265.653 76.56 268.213 70.28 273.333 62.04C274.133 60.76 274.533 59.68 274.533 58.8C274.533 57.84 274.133 57.36 273.333 57.36C272.453 57.36 271.293 57.84 269.853 58.8C268.413 59.68 266.773 60.96 264.933 62.64C263.413 64.08 261.813 65.8 260.133 67.8C258.533 69.8 256.813 72.08 254.973 74.64C250.973 80.48 248.613 85 247.893 88.2C246.533 88.2 245.493 87.56 244.773 86.28C244.213 85.16 243.933 84.04 243.933 82.92C243.933 81.32 244.493 79.2 245.613 76.56C246.733 73.92 248.293 70.72 250.293 66.96C252.613 62.8 253.773 59.8 253.773 57.96C253.773 57.16 253.453 56.76 252.813 56.76C251.533 56.76 248.693 58.76 244.293 62.76C243.173 63.8 241.973 65.12 240.693 66.72C239.493 68.24 238.213 70.04 236.853 72.12C233.733 76.76 231.333 81.4 229.653 86.04C229.173 87.24 227.933 87.96 225.933 88.2C223.373 88.44 221.813 88.72 221.253 89.04ZM299.857 88.68C296.737 88.68 294.057 87.68 291.817 85.68C290.617 84.56 289.737 83.28 289.177 81.84C288.697 80.32 288.457 78.6 288.457 76.68C288.457 69.32 291.497 62 297.577 54.72C302.697 48.56 308.017 45.48 313.537 45.48C315.377 45.48 316.937 45.96 318.217 46.92C319.577 48.04 320.257 49.48 320.257 51.24C320.257 55.64 317.337 60.04 311.497 64.44C309.657 65.8 307.217 67 304.177 68.04C300.817 69.16 298.377 69.72 296.857 69.72C295.737 72.44 295.177 75.32 295.177 78.36C295.177 83.56 297.097 86.16 300.937 86.16C305.977 86.16 310.697 82.88 315.097 76.32L315.577 75.6L317.617 76.44L317.257 77.16C315.257 81.16 312.737 84.08 309.697 85.92C306.657 87.76 303.377 88.68 299.857 88.68ZM297.577 67.68C298.937 67.68 300.817 67.24 303.217 66.36C304.577 65.8 305.857 65.2 307.057 64.56C308.337 63.92 309.457 63.2 310.417 62.4C314.817 58.72 317.017 54.84 317.017 50.76C317.017 49 316.377 48.12 315.097 48.12C312.857 48.12 309.457 50.88 304.897 56.4C302.577 59.2 300.137 62.96 297.577 67.68Z" fill="black"/>
</svg>
